<svg xmlns="http://www.w3.org/2000/svg" viewBox="0 0 327.82 464.68"><defs><style>.cls-1{fill:#0070ba;}.cls-2{fill:#29a8e0;}.cls-3{fill:#ebebeb;}.cls-4{fill:#fff;}</style></defs><g id="Calque_2" data-name="Calque 2"><g id="Css"><polygon class="cls-1" points="0 91.36 327.82 90.42 298.35 426.64 164.58 464.68 29.31 426.3 0 91.36"/><polygon class="cls-2" points="164.58 117.99 298.38 117.99 273.61 404.88 164.64 435.96 164.58 117.99"/><polygon class="cls-3" points="61.92 160.32 267.3 160.32 248.75 369.48 164.58 392.72 77.37 368.95 71.99 302.94 114.21 302.94 116.83 335.98 164.58 348.67 209.38 336.42 214.19 284.13 71.77 284.13 68.05 242.34 217.91 242.78 222.5 200.56 64.77 200.78 61.92 160.32"/><polygon class="cls-4" points="164.58 348.67 209.38 336.42 214.19 284.13 164.58 284.13 164.64 242.63 217.91 242.78 222.5 200.56 164.64 200.64 164.58 160.32 267.3 160.32 248.75 369.48 164.58 392.72 164.58 348.67"/><polygon points="67.4 0 125.5 0 125.5 22.36 93.16 22.36 93.16 42.33 125.5 42.33 125.5 62.89 67.4 62.89 67.4 0"/><polygon points="134.89 0 192.99 0 192.99 22.56 168.63 22.56 192.99 42.33 192.99 62.89 134.89 62.89 134.89 42.53 160.05 42.53 134.89 22.16 134.89 0"/><polygon points="202.32 0 260.43 0 260.43 22.56 236.07 22.56 260.43 42.33 260.43 62.89 202.32 62.89 202.32 42.53 227.48 42.53 202.32 22.16 202.32 0"/></g></g></svg>