<svg xmlns="http://www.w3.org/2000/svg" viewBox="0 0 327.82 464.82"><defs><style>.cls-1{fill:#4514a8;}.cls-2{fill:#6d18d4;}.cls-3{fill:#fff;}.cls-4{fill:#ebebeb;}</style></defs><g id="Calque_2" data-name="Calque 2"><g id="Java_script" data-name="Java script"><polygon class="cls-1" points="0 91.5 327.82 90.56 298.35 426.78 164.58 464.82 29.31 426.44 0 91.5"/><polygon class="cls-2" points="164.58 118.13 298.38 118.13 273.61 405.02 164.64 436.1 164.58 118.13"/></g><g id="Css"><polygon points="223.94 0 186.4 62.89 165.83 62.89 203.37 0 223.94 0"/><polygon points="165.83 0 203.37 62.89 223.94 62.89 186.4 0 165.83 0"/><polygon class="cls-3" points="267.27 159.76 61.89 159.76 80.44 368.92 164.61 392.16 251.82 368.39 257.21 302.39 214.99 302.39 212.36 335.42 164.61 348.11 119.82 335.86 115 283.57 257.43 283.57 261.15 241.79 111.29 242.22 106.69 200 264.43 200.22 267.27 159.76"/><polygon class="cls-4" points="164.61 348.11 119.82 335.86 115 283.57 164.61 283.57 164.56 242.07 111.29 242.22 106.69 200 164.56 200.08 164.61 159.76 61.89 159.76 80.44 368.92 164.61 392.16 164.61 348.11"/></g><g id="Calque_5" data-name="Calque 5"><polygon points="104.23 11.39 104.23 62.89 155.09 62.89 155.09 46.02 124.29 46.02 124.29 11.39 104.23 11.39"/><polygon points="104.23 51.51 104.23 0 155.09 0 155.09 16.87 124.29 16.87 124.29 51.51 104.23 51.51"/><rect x="122.45" y="23.01" width="19.17" height="16.87"/></g></g></svg>