<svg xmlns="http://www.w3.org/2000/svg" viewBox="0 0 329.37 464.6"><defs><style>.cls-1{fill:#e44d26;}.cls-2{fill:#f16529;}.cls-3{fill:#fff;}.cls-4{fill:#ebebeb;}</style></defs><g id="Calque_2" data-name="Calque 2"><g id="html"><polygon class="cls-1" points="0 91.78 329.37 91.78 299.03 426.62 164.69 464.6 30.12 425.97 0 91.78"/><polygon class="cls-2" points="164.68 118.65 299.03 118.65 273.52 405.03 164.68 435.34 164.68 118.65"/><polygon class="cls-3" points="61.91 159.51 267.79 159.51 264.06 201 107.66 201 110.32 241.97 260.34 241.97 249.7 369.11 164.68 393.58 79.99 369.64 74.67 304.21 116.35 304.53 118.83 337.72 164.68 348.89 210.33 336.66 215.44 283.99 72.01 283.99 61.91 159.51"/><polygon class="cls-4" points="164.68 241.97 110.32 241.97 107.66 201 164.85 201 164.85 159.51 61.91 159.51 72.01 283.99 164.85 283.99 164.68 241.97"/><polygon class="cls-4" points="164.68 348.89 118.83 337.72 116.35 304.53 74.67 304.21 79.99 369.64 164.68 393.58 164.68 348.89"/><polygon points="31.09 0 52.05 0 52.05 20.6 71.19 20.6 71.19 0 92.16 0 92.16 62.9 71.01 62.9 71.01 42.11 51.87 42.11 51.87 62.9 31.09 62.9 31.09 0"/><polygon points="101.27 0 101.27 20.96 119.5 20.96 119.5 62.9 140.28 62.9 140.28 20.96 158.88 20.96 158.88 0 101.27 0"/><polygon points="168 0 168 62.9 188.23 62.9 188.23 31.45 202.81 53.6 217.76 31.45 217.76 62.9 238.73 62.9 238.73 0 216.31 0 203.36 21.69 190.05 0 168 0"/><polygon points="248.94 0 248.94 62.9 299.8 62.9 299.8 42.29 268.99 42.29 268.99 0 248.94 0"/></g></g></svg>