<svg xmlns="http://www.w3.org/2000/svg" viewBox="0 0 327.82 464.78"><defs><style>.cls-1{fill:#63a814;}.cls-2{fill:#8acf17;}.cls-3{fill:#ebebeb;}.cls-4{fill:#fff;}</style></defs><g id="Calque_2" data-name="Calque 2"><g id="Java_script" data-name="Java script"><polygon class="cls-1" points="0 91.46 327.82 90.52 298.35 426.73 164.58 464.78 29.31 426.39 0 91.46"/><polygon class="cls-2" points="164.58 118.08 298.38 118.08 273.61 404.98 164.64 436.05 164.58 118.08"/><polygon class="cls-3" points="61.01 158.41 268.2 158.41 249.93 369.76 164.63 393.42 79.28 369.34 73.88 303.74 115.81 303.74 118.72 336.95 164.62 349.47 210.1 337.08 222.76 200.31 63.97 200.31 61.01 158.41"/><polygon class="cls-4" points="164.63 393.42 249.93 369.76 268.2 158.41 163.91 158.41 164.6 200.31 222.76 200.31 210.1 337.08 164.62 349.47 164.63 393.42"/><polygon points="133.64 0 159.24 0 159.24 62.8 101.23 62.8 101.23 40.33 133.42 40.33 133.64 0"/><polygon points="168.51 0 227.26 0 227.26 23.02 202.27 23.02 227.26 42.83 227.26 62.8 168.51 62.8 168.51 42.3 193.23 42.3 168.51 22.89 168.51 0"/></g></g></svg>