<svg xmlns="http://www.w3.org/2000/svg" viewBox="0 0 327.82 464.82"><defs><style>.cls-1{fill:#f5cc00;}.cls-2{fill:#ffee05;}.cls-3{fill:#fff;}.cls-4{fill:#ebebeb;}</style></defs><g id="Calque_2" data-name="Calque 2"><g id="Java_script" data-name="Java script"><polygon class="cls-1" points="0 91.5 327.82 90.56 298.35 426.78 164.58 464.82 29.31 426.44 0 91.5"/><polygon class="cls-2" points="164.58 118.13 298.38 118.13 273.61 405.03 164.64 436.1 164.58 118.13"/><polygon class="cls-3" points="268.2 158.46 61.01 158.46 79.28 369.81 164.58 393.47 249.93 369.39 258.78 261.87 164.6 261.87 164.6 303.78 213.39 303.78 210.49 337 164.58 349.52 119.11 337.13 106.45 200.36 265.24 200.36 268.2 158.46"/><polygon class="cls-4" points="164.58 393.47 79.28 369.81 61.01 158.46 165.29 158.46 164.61 200.36 106.45 200.36 119.11 337.13 164.58 349.52 164.58 393.47"/></g><g id="Css"><polygon points="168.83 0 226.94 0 226.94 22.36 194.59 22.36 194.59 42.33 206.37 42.33 206.37 32.99 226.94 32.99 226.94 62.89 168.83 62.89 168.83 0"/></g><g id="Calque_5" data-name="Calque 5"><polygon points="101.23 0 101.23 62.9 152.09 62.9 152.09 42.29 121.29 42.29 121.29 0 101.23 0"/></g></g></svg>