<svg xmlns="http://www.w3.org/2000/svg" viewBox="0 0 327.82 464.82"><defs><style>.cls-1{fill:#a814a1;}.cls-2{fill:#cf1795;}.cls-3{fill:#ebebeb;}.cls-4{fill:#fff;}</style></defs><g id="Calque_2" data-name="Calque 2"><g id="Java_script" data-name="Java script"><polygon class="cls-1" points="0 91.5 327.82 90.56 298.35 426.78 164.58 464.82 29.31 426.44 0 91.5"/><polygon class="cls-2" points="164.58 118.13 298.38 118.13 273.61 405.03 164.64 436.1 164.58 118.13"/><polygon class="cls-3" points="61.01 158.46 268.2 158.46 249.93 369.81 164.63 393.47 79.28 369.39 73.88 303.78 115.81 303.78 118.72 337 164.62 349.52 210.1 337.13 222.76 200.36 63.97 200.36 61.01 158.46"/><polygon class="cls-4" points="164.63 393.47 249.93 369.81 268.2 158.46 163.91 158.46 164.6 200.36 222.76 200.36 210.1 337.13 164.62 349.52 164.63 393.47"/></g><g id="Css"><polygon points="226.94 62.89 168.83 62.89 168.83 40.53 201.18 40.53 201.18 20.57 189.4 20.57 189.4 29.9 168.83 29.9 168.83 0 226.94 0 226.94 62.89"/></g><g id="html"><polygon points="118.95 62.9 98.17 62.9 98.17 0 119.14 0 118.95 62.9"/><polygon points="138.28 0 159.24 0 159.24 62.9 138.09 62.9 138.28 0"/><polygon points="98.17 0 138.09 62.9 159.24 62.9 119.14 0 98.17 0"/><polyline class="cls-3" points="111.19 268.17 106.76 199.95 163.94 199.95 163.94 158.46 61.01 158.46 69.91 268.17"/></g></g></svg>